# xmcd
#
# Track frame offsets:
#	150
#	11675
#	22428
#	35009
#	50150
#	66165
#	81300
#	96833
#	109259
#	118667
#	136989
#
# Disc length: 2020 seconds
#
# Revision: 1
# Processed by: cddbd v1.5.2PL0 Copyright (c) Steve Scherf et al.
# Submitted via: audiograbber 1.83.01
#
DISCID=a207e20b
DTITLE=Beardog - Back Porch Revival
DYEAR=2007
DGENRE=Windy City Twang Pop
TTITLE0=Younger
TTITLE1=Opie
TTITLE2=Sandman
TTITLE3=Minivan
TTITLE4=Mango Street
TTITLE5=Sire
TTITLE6=American't
TTITLE7=Yeah Yeah Yeahs
TTITLE8=Piebald
TTITLE9=Horizons
TTITLE10=Call Back
EXTD=
EXTT0=
EXTT1=
EXTT2=
EXTT3=
EXTT4=
EXTT5=
EXTT6=
EXTT7=
EXTT8=
EXTT9=
EXTT10=
PLAYORDER=
